#!OML:ASF G:\JayActor3\Patient Classification 1\Patient 1\Session 6\male.ASF
:FULLY-SPECIFIED
:DEGREES
892
root 8.23555 16.3783 -2.3397 -0.0602128 -63.0782 -4.77915
lowerback 5.91444 -1.19951 6.34997
upperback -3.26663 -0.951001 2.09842
thorax -6.83183 -0.718849 -1.24412
lowerneck -4.11499 6.44388 6.9888
upperneck 22.8974 10.371 -12.01
head 8.78128 4.25251 -4.33644
rclavicle 1.97791e-014 -7.15625e-015
rhumerus -39.7005 1.88828 -74.5087
rradius 23.2978
rwrist 14.749
rhand -15.4101 -2.65345
rfingers 7.12502
rthumb 10.7692 -32.3574
lclavicle 1.97791e-014 -7.15625e-015
lhumerus -39.4265 -23.1265 86.8558
lradius 38.1791
lwrist 22.278
lhand -8.82687 7.20898
lfingers 7.12502
lthumb 17.1131 36.4753
rfemur -6.64177 -1.68526 19.5247
rtibia 35.3561
rfoot -26.2898 -7.58468
rtoes 0.51037
lfemur -1.70369 12.8274 -14.4033
ltibia 23.0264
lfoot -18.2605 19.5684
ltoes 2.26534
893
root 8.24487 16.3771 -2.30017 0.0262985 -63.243 -4.88092
lowerback 5.96779 -1.23024 6.2635
upperback -3.27355 -0.994958 2.09126
thorax -6.871 -0.73754 -1.19692
lowerneck -4.14977 6.46869 6.94919
upperneck 22.9012 10.4321 -12.1233
head 8.8003 4.26405 -4.36215
rclavicle -8.94531e-016 1.11319e-014
rhumerus -39.8271 1.70336 -74.1458
rradius 22.9646
rwrist 15.1313
rhand -15.471 -2.6549
rfingers 7.12502
rthumb 10.7104 -32.3619
lclavicle -8.94531e-016 1.11319e-014
lhumerus -39.136 -23.192 86.6868
lradius 38.4791
lwrist 22.4319
lhand -8.95638 7.09043
lfingers 7.12502
lthumb 16.9884 36.3675
rfemur -6.75892 -1.54666 19.4385
rtibia 35.5679
rfoot -26.1729 -7.63696
rtoes 0.401687
lfemur -1.60578 12.9073 -14.4937
ltibia 22.991
lfoot -18.4095 19.616
ltoes 2.33555
894
root 8.25543 16.376 -2.26148 0.131565 -63.4364 -4.99523
lowerback 6.03451 -1.24892 6.17635
upperback -3.28214 -1.02156 2.08867
thorax -6.9183 -0.747763 -1.14627
lowerneck -4.19391 6.48928 6.91056
upperneck 22.9057 10.4901 -12.2504
head 8.82183 4.27247 -4.39298
rclavicle 3.1408e-014 1.19271e-014
rhumerus -39.9463 1.52147 -73.7863
rradius 22.6595
rwrist 15.5003
rhand -15.5163 -2.64517
rfingers 7.12502
rthumb 10.6668 -32.3544
lclavicle 3.1408e-014 1.19271e-014
lhumerus -38.8527 -23.2803 86.5424
lradius 38.7553
lwrist 22.5805
lhand -9.12558 6.98349
lfingers 7.12502
lthumb 16.8256 36.2745
rfemur -6.91345 -1.39403 19.3579
rtibia 35.8116
rfoot -26.0414 -7.66712
rtoes 0.300766
lfemur -1.52201 12.9943 -14.5816
ltibia 22.9586
lfoot -18.5694 19.6752
ltoes 2.44999
895
root 8.26686 16.3753 -2.2233 0.255377 -63.6555 -5.11834
lowerback 6.10564 -1.25628 6.09281
upperback -3.29323 -1.03239 2.08647
thorax -6.9698 -0.750508 -1.09896
lowerneck -4.24275 6.50617 6.87718
upperneck 22.9098 10.5447 -12.3893
head 8.84484 4.27845 -4.42909
rclavicle -4.3832e-014 -2.3059e-014
rhumerus -40.0608 1.33443 -73.4337
rradius 22.3852
rwrist 15.8408
rhand -15.5472 -2.63086
rfingers 7.12502
rthumb 10.6369 -32.3416
lclavicle -4.3832e-014 -2.3059e-014
lhumerus -38.5768 -23.392 86.4189
lradius 39.0037
lwrist 22.7154
lhand -9.31538 6.85689
lfingers 7.12502
lthumb 16.6428 36.1634
rfemur -7.11357 -1.24078 19.276
rtibia 36.0926
rfoot -25.8811 -7.68284
rtoes 0.168159
lfemur -1.45342 13.086 -14.6719
ltibia 22.9281
lfoot -18.7331 19.7533
ltoes 2.57975
896
root 8.27885 16.3746 -2.18532 0.36469 -63.8909 -5.21427
lowerback 6.17541 -1.25511 6.00003
upperback -3.30512 -1.03306 2.08037
thorax -7.02049 -0.747858 -1.05186
lowerneck -4.29644 6.52452 6.84474
upperneck 22.9129 10.6023 -12.5325
head 8.86914 4.28528 -4.46647
rclavicle 2.98177e-015 1.82882e-014
rhumerus -40.17 1.14295 -73.0881
rradius 22.143
rwrist 16.1402
rhand -15.5633 -2.61575
rfingers 7.12502
rthumb 10.6214 -32.3273
lclavicle 2.98177e-015 1.82882e-014
lhumerus -38.3317 -23.5491 86.3259
lradius 39.2606
lwrist 22.8533
lhand -9.52724 6.74831
lfingers 7.12502
lthumb 16.4389 36.0718
rfemur -7.3572 -1.11284 19.1688
rtibia 36.4159
rfoot -25.6849 -7.66744
rtoes -0.000601238
lfemur -1.39845 13.1805 -14.7828
ltibia 22.9002
lfoot -18.8984 19.8475
ltoes 2.70127
897
root 8.29088 16.3737 -2.147 0.456782 -64.1384 -5.28144
lowerback 6.23128 -1.24806 5.90175
upperback -3.31433 -1.02804 2.06914
thorax -7.05987 -0.741936 -1.00818
lowerneck -4.35033 6.54627 6.81541
upperneck 22.9114 10.6643 -12.6774
head 8.89286 4.29451 -4.50434
rclavicle -2.38542e-015 -1.74931e-014
rhumerus -40.2709 0.959022 -72.7587
rradius 21.9318
rwrist 16.3915
rhand -15.5615 -2.60739
rfingers 7.12502
rthumb 10.6231 -32.3189
lclavicle -2.38542e-015 -1.74931e-014
lhumerus -38.1113 -23.7343 86.2539
lradius 39.5194
lwrist 22.9799
lhand -9.74199 6.62899
lfingers 7.12502
lthumb 16.2321 35.9695
rfemur -7.64166 -1.03044 19.0299
rtibia 36.7867
rfoot -25.4427 -7.61345
rtoes -0.241446
lfemur -1.35 13.283 -14.9135
ltibia 22.8713
lfoot -19.0685 19.9469
ltoes 2.83071
898
root 8.30325 16.3725 -2.10871 0.520073 -64.3812 -5.31007
lowerback 6.27918 -1.2403 5.79442
upperback -3.32022 -1.02414 2.05102
thorax -7.09106 -0.735999 -0.966796
lowerneck -4.40655 6.57172 6.79081
upperneck 22.906 10.7306 -12.821
head 8.91648 4.30634 -4.54197
rclavicle -5.52621e-014 1.59028e-015
rhumerus -40.3621 0.795576 -72.4557
rradius 21.7499
rwrist 16.5808
rhand -15.5529 -2.59883
rfingers 7.12502
rthumb 10.6315 -32.3099
lclavicle -5.52621e-014 1.59028e-015
lhumerus -37.9308 -23.9644 86.2053
lradius 39.811
lwrist 23.1074
lhand -9.95746 6.5382
lfingers 7.12502
lthumb 16.0246 35.8955
rfemur -7.96152 -1.00759 18.8555
rtibia 37.2088
rfoot -25.1613 -7.505
rtoes -0.534331
lfemur -1.30871 13.4027 -15.0632
ltibia 22.8402
lfoot -19.2247 20.0353
ltoes 2.93556
899
root 8.31562 16.3707 -2.07052 0.54747 -64.6249 -5.29724
lowerback 6.31804 -1.22976 5.67387
upperback -3.31978 -1.01919 2.0259
thorax -7.10997 -0.728655 -0.925902
lowerneck -4.45985 6.60163 6.77266
upperneck 22.8906 10.8009 -12.9603
head 8.93686 4.32159 -4.57861
rclavicle 2.48481e-015 -4.21423e-014
rhumerus -40.4412 0.678726 -72.1954
rradius 21.5967
rwrist 16.6805
rhand -15.524 -2.59648
rfingers 7.12502
rthumb 10.6594 -32.3061
lclavicle 2.48481e-015 -4.21423e-014
lhumerus -37.763 -24.1964 86.1624
lradius 40.1057
lwrist 23.2041
lhand -10.1439 6.45132
lfingers 7.12502
lthumb 15.8451 35.823
rfemur -8.31447 -1.03593 18.6461
rtibia 37.6849
rfoot -24.8356 -7.35613
rtoes -0.891505
lfemur -1.2657 13.5396 -15.2295
ltibia 22.8052
lfoot -19.3852 20.1033
ltoes 3.06322
900
root 8.32801 16.3686 -2.03264 0.555032 -64.8718 -5.26157
lowerback 6.35273 -1.21764 5.54906
upperback -3.31478 -1.01345 1.99404
thorax -7.12157 -0.720614 -0.889994
lowerneck -4.50337 6.63487 6.76731
upperneck 22.862 10.8731 -13.0979
head 8.95177 4.33999 -4.61656
rclavicle -2.97183e-014 1.59028e-014
rhumerus -40.5132 0.598855 -71.9783
rradius 21.4768
rwrist 16.7157
rhand -15.483 -2.60208
rfingers 7.12502
rthumb 10.6989 -32.3097
lclavicle -2.97183e-014 1.59028e-014
lhumerus -37.621 -24.4377 86.1221
lradius 40.4161
lwrist 23.2823
lhand -10.2913 6.41414
lfingers 7.12502
lthumb 15.7031 35.797
rfemur -8.70306 -1.10449 18.413
rtibia 38.2144
rfoot -24.4682 -7.16919
rtoes -1.32633
lfemur -1.22198 13.7092 -15.3997
ltibia 22.7676
lfoot -19.5356 20.1479
ltoes 3.17222
